<mxfile host="app.diagrams.net" modified="2022-01-18T12:36:27.974Z" agent="5.0 (Macintosh; Intel Mac OS X 10_15_7) AppleWebKit/605.1.15 (KHTML, like Gecko) Version/15.2 Safari/605.1.15" etag="ayopzRmQBxRQZwlQ-Ldn" version="16.2.7" type="gitlab">
  <diagram id="xC5amE80CAftkIpWAQrh" name="Page-1">
    <mxGraphModel dx="278" dy="419" grid="1" gridSize="10" guides="1" tooltips="1" connect="1" arrows="1" fold="1" page="1" pageScale="1" pageWidth="827" pageHeight="1169" math="0" shadow="0">
      <root>
        <mxCell id="0" />
        <mxCell id="1" parent="0" />
        <mxCell id="lL7V6tbuZsqRUhiHhRVh-6" style="edgeStyle=orthogonalEdgeStyle;rounded=0;orthogonalLoop=1;jettySize=auto;html=1;exitX=1;exitY=0.5;exitDx=0;exitDy=0;" edge="1" parent="1" source="lL7V6tbuZsqRUhiHhRVh-1" target="lL7V6tbuZsqRUhiHhRVh-5">
          <mxGeometry relative="1" as="geometry" />
        </mxCell>
        <mxCell id="lL7V6tbuZsqRUhiHhRVh-1" value="ProgramNode" style="ellipse;whiteSpace=wrap;html=1;" vertex="1" parent="1">
          <mxGeometry x="30" y="30" width="180" height="80" as="geometry" />
        </mxCell>
        <mxCell id="lL7V6tbuZsqRUhiHhRVh-12" style="edgeStyle=orthogonalEdgeStyle;rounded=0;orthogonalLoop=1;jettySize=auto;html=1;exitX=0.25;exitY=1;exitDx=0;exitDy=0;entryX=0;entryY=0;entryDx=0;entryDy=0;" edge="1" parent="1" source="lL7V6tbuZsqRUhiHhRVh-2" target="lL7V6tbuZsqRUhiHhRVh-10">
          <mxGeometry relative="1" as="geometry" />
        </mxCell>
        <mxCell id="lL7V6tbuZsqRUhiHhRVh-13" style="edgeStyle=orthogonalEdgeStyle;rounded=0;orthogonalLoop=1;jettySize=auto;html=1;exitX=0.75;exitY=1;exitDx=0;exitDy=0;entryX=1;entryY=0;entryDx=0;entryDy=0;" edge="1" parent="1" source="lL7V6tbuZsqRUhiHhRVh-2" target="lL7V6tbuZsqRUhiHhRVh-9">
          <mxGeometry relative="1" as="geometry">
            <Array as="points">
              <mxPoint x="140" y="130" />
              <mxPoint x="140" y="160" />
              <mxPoint x="147" y="160" />
            </Array>
          </mxGeometry>
        </mxCell>
        <mxCell id="lL7V6tbuZsqRUhiHhRVh-2" value="List&amp;lt;VarDeclNode&amp;gt;" style="rounded=0;whiteSpace=wrap;html=1;" vertex="1" parent="1">
          <mxGeometry x="30" y="100" width="120" height="30" as="geometry" />
        </mxCell>
        <mxCell id="lL7V6tbuZsqRUhiHhRVh-14" style="edgeStyle=orthogonalEdgeStyle;rounded=0;orthogonalLoop=1;jettySize=auto;html=1;exitX=0.75;exitY=1;exitDx=0;exitDy=0;entryX=1;entryY=0;entryDx=0;entryDy=0;" edge="1" parent="1" source="lL7V6tbuZsqRUhiHhRVh-4" target="lL7V6tbuZsqRUhiHhRVh-8">
          <mxGeometry relative="1" as="geometry">
            <Array as="points">
              <mxPoint x="260" y="130" />
              <mxPoint x="260" y="160" />
              <mxPoint x="267" y="160" />
            </Array>
          </mxGeometry>
        </mxCell>
        <mxCell id="lL7V6tbuZsqRUhiHhRVh-15" style="edgeStyle=orthogonalEdgeStyle;rounded=0;orthogonalLoop=1;jettySize=auto;html=1;exitX=0.25;exitY=1;exitDx=0;exitDy=0;entryX=0;entryY=0;entryDx=0;entryDy=0;" edge="1" parent="1" source="lL7V6tbuZsqRUhiHhRVh-4" target="lL7V6tbuZsqRUhiHhRVh-7">
          <mxGeometry relative="1" as="geometry" />
        </mxCell>
        <mxCell id="lL7V6tbuZsqRUhiHhRVh-4" value="List&amp;lt;FunDeclNode&amp;gt;" style="rounded=0;whiteSpace=wrap;html=1;" vertex="1" parent="1">
          <mxGeometry x="160" y="100" width="120" height="30" as="geometry" />
        </mxCell>
        <mxCell id="lL7V6tbuZsqRUhiHhRVh-5" value="MainNode" style="ellipse;whiteSpace=wrap;html=1;" vertex="1" parent="1">
          <mxGeometry x="240" y="50" width="90" height="40" as="geometry" />
        </mxCell>
        <mxCell id="lL7V6tbuZsqRUhiHhRVh-7" value="FunDeclNode" style="ellipse;whiteSpace=wrap;html=1;" vertex="1" parent="1">
          <mxGeometry x="160" y="140" width="90" height="40" as="geometry" />
        </mxCell>
        <mxCell id="lL7V6tbuZsqRUhiHhRVh-8" value="FunDeclNode" style="ellipse;whiteSpace=wrap;html=1;" vertex="1" parent="1">
          <mxGeometry x="190" y="190" width="90" height="40" as="geometry" />
        </mxCell>
        <mxCell id="lL7V6tbuZsqRUhiHhRVh-9" value="VarDeclNode" style="ellipse;whiteSpace=wrap;html=1;" vertex="1" parent="1">
          <mxGeometry x="70" y="190" width="90" height="40" as="geometry" />
        </mxCell>
        <mxCell id="lL7V6tbuZsqRUhiHhRVh-10" value="VarDeclNode" style="ellipse;whiteSpace=wrap;html=1;" vertex="1" parent="1">
          <mxGeometry x="30" y="140" width="90" height="40" as="geometry" />
        </mxCell>
        <mxCell id="lL7V6tbuZsqRUhiHhRVh-20" style="edgeStyle=orthogonalEdgeStyle;rounded=0;orthogonalLoop=1;jettySize=auto;html=1;exitX=0;exitY=1;exitDx=0;exitDy=0;entryX=0.307;entryY=0.075;entryDx=0;entryDy=0;entryPerimeter=0;" edge="1" parent="1" source="lL7V6tbuZsqRUhiHhRVh-16" target="lL7V6tbuZsqRUhiHhRVh-18">
          <mxGeometry relative="1" as="geometry" />
        </mxCell>
        <mxCell id="lL7V6tbuZsqRUhiHhRVh-16" value="VarDeclNode" style="ellipse;whiteSpace=wrap;html=1;" vertex="1" parent="1">
          <mxGeometry x="30" y="250" width="180" height="80" as="geometry" />
        </mxCell>
        <mxCell id="lL7V6tbuZsqRUhiHhRVh-18" value="TypeNode" style="ellipse;whiteSpace=wrap;html=1;" vertex="1" parent="1">
          <mxGeometry x="30" y="340" width="90" height="40" as="geometry" />
        </mxCell>
        <mxCell id="lL7V6tbuZsqRUhiHhRVh-19" value="List&amp;lt;IdInitNode&amp;gt;" style="rounded=0;whiteSpace=wrap;html=1;" vertex="1" parent="1">
          <mxGeometry x="160" y="310" width="120" height="30" as="geometry" />
        </mxCell>
        <mxCell id="lL7V6tbuZsqRUhiHhRVh-24" style="edgeStyle=orthogonalEdgeStyle;rounded=0;orthogonalLoop=1;jettySize=auto;html=1;exitX=1;exitY=1;exitDx=0;exitDy=0;entryX=0.726;entryY=0.075;entryDx=0;entryDy=0;entryPerimeter=0;" edge="1" parent="1" source="lL7V6tbuZsqRUhiHhRVh-21" target="lL7V6tbuZsqRUhiHhRVh-23">
          <mxGeometry relative="1" as="geometry" />
        </mxCell>
        <mxCell id="lL7V6tbuZsqRUhiHhRVh-25" style="edgeStyle=orthogonalEdgeStyle;rounded=0;orthogonalLoop=1;jettySize=auto;html=1;exitX=0;exitY=1;exitDx=0;exitDy=0;entryX=0.52;entryY=-0.017;entryDx=0;entryDy=0;entryPerimeter=0;" edge="1" parent="1" source="lL7V6tbuZsqRUhiHhRVh-21" target="lL7V6tbuZsqRUhiHhRVh-22">
          <mxGeometry relative="1" as="geometry" />
        </mxCell>
        <mxCell id="lL7V6tbuZsqRUhiHhRVh-21" value="IdInitNode" style="ellipse;whiteSpace=wrap;html=1;" vertex="1" parent="1">
          <mxGeometry x="230" y="400" width="180" height="80" as="geometry" />
        </mxCell>
        <mxCell id="lL7V6tbuZsqRUhiHhRVh-22" value="LeafID" style="text;html=1;align=center;verticalAlign=middle;resizable=0;points=[];autosize=1;strokeColor=none;fillColor=none;" vertex="1" parent="1">
          <mxGeometry x="230" y="490" width="50" height="20" as="geometry" />
        </mxCell>
        <mxCell id="lL7V6tbuZsqRUhiHhRVh-23" value="ExprNode" style="ellipse;whiteSpace=wrap;html=1;" vertex="1" parent="1">
          <mxGeometry x="320" y="490" width="90" height="40" as="geometry" />
        </mxCell>
        <mxCell id="lL7V6tbuZsqRUhiHhRVh-27" style="edgeStyle=orthogonalEdgeStyle;rounded=0;orthogonalLoop=1;jettySize=auto;html=1;exitX=0;exitY=1;exitDx=0;exitDy=0;entryX=0.52;entryY=-0.017;entryDx=0;entryDy=0;entryPerimeter=0;" edge="1" parent="1" source="lL7V6tbuZsqRUhiHhRVh-28" target="lL7V6tbuZsqRUhiHhRVh-29">
          <mxGeometry relative="1" as="geometry" />
        </mxCell>
        <mxCell id="lL7V6tbuZsqRUhiHhRVh-28" value="IdInitNode" style="ellipse;whiteSpace=wrap;html=1;" vertex="1" parent="1">
          <mxGeometry x="30" y="400" width="180" height="80" as="geometry" />
        </mxCell>
        <mxCell id="lL7V6tbuZsqRUhiHhRVh-29" value="LeafID" style="text;html=1;align=center;verticalAlign=middle;resizable=0;points=[];autosize=1;strokeColor=none;fillColor=none;" vertex="1" parent="1">
          <mxGeometry x="30" y="490" width="50" height="20" as="geometry" />
        </mxCell>
      </root>
    </mxGraphModel>
  </diagram>
</mxfile>
